#!OML:ASF F:\VICON\USERDATA\INSTALL\rory3\rory3.ASF
:FULLY-SPECIFIED
:DEGREES
193
root 8.89154 17.6756 -0.86596 323.044 86.3511 325.198
lowerback 12.0335 0.635945 -2.88194
upperback 0.824803 0.543053 0.776271
thorax -5.92153 0.3689 2.35073
lowerneck -9.04035 -10.5012 -12.8622
upperneck 33.5423 -15.8838 13.1016
head 15.5533 -6.52684 5.16896
rclavicle 5.64051e-015 1.98785e-015
rhumerus -32.8339 -16.3414 -73.5983
rradius 36.5781
rwrist 1.89726
rhand -20.6579 8.71729
rfingers 7.12502
rthumb 5.70464 -21.1859
lclavicle 5.64051e-015 1.98785e-015
lhumerus -34.5657 11.5465 80.6595
lradius 31.0051
lwrist -7.04448
lhand -19.9854 25.8094
lfingers 7.12502
lthumb 6.35394 55.6941
rfemur -12.1152 -0.334868 20.9224
rtibia 36.7489
rfoot -18.6857 8.85622
rtoes 4.05068
lfemur -9.72648 -6.49994 -22.5974
ltibia 32.7467
lfoot -16.1613 -8.21954
ltoes 10.166
194
root 8.87327 17.6736 -0.819247 321.477 86.5022 323.608
lowerback 12.1891 0.563316 -3.09753
upperback 0.831941 0.408438 0.695586
thorax -5.99347 0.308906 2.41042
lowerneck -9.02864 -10.5237 -12.6468
upperneck 33.3546 -16.0326 13.3244
head 15.4907 -6.54412 5.19134
rclavicle -2.95692e-015 -1.47101e-014
rhumerus -33.0604 -17.267 -73.6926
rradius 36.5024
rwrist 2.38512
rhand -20.8181 8.85805
rfingers 7.12502
rthumb 5.54994 -21.0493
lclavicle -2.95692e-015 -1.47101e-014
lhumerus -34.3662 11.6153 80.3817
lradius 30.9049
lwrist -7.3317
lhand -19.8955 25.8884
lfingers 7.12502
lthumb 6.44073 55.7705
rfemur -12.3878 -0.826002 20.9953
rtibia 37.1334
rfoot -18.6815 9.12483
rtoes 3.94454
lfemur -9.91813 -6.53984 -22.4116
ltibia 32.8487
lfoot -16.0928 -8.63889
ltoes 9.89031
195
root 8.85206 17.6719 -0.770496 320.551 86.5907 322.609
lowerback 12.3192 0.56057 -3.379
upperback 0.832598 0.362627 0.700484
thorax -6.06448 0.295539 2.58284
lowerneck -9.03797 -10.5914 -12.7005
upperneck 33.1342 -16.2298 13.6761
head 15.4761 -6.60198 5.30376
rclavicle -2.48481e-016 -2.78299e-015
rhumerus -33.2928 -18.1486 -73.636
rradius 36.4635
rwrist 2.60684
rhand -20.8248 8.96735
rfingers 7.12502
rthumb 5.54355 -20.9401
lclavicle -2.48481e-016 -2.78299e-015
lhumerus -34.0812 11.4915 80.3745
lradius 30.6514
lwrist -7.63465
lhand -19.9691 25.8067
lfingers 7.12502
lthumb 6.36964 55.6909
rfemur -12.7472 -1.55027 21.0643
rtibia 37.4994
rfoot -18.8301 9.67985
rtoes 2.76355
lfemur -10.1824 -6.45479 -22.1782
ltibia 32.9978
lfoot -16.2798 -8.90506
ltoes 8.45137
196
root 8.83017 17.6781 -0.722308 319.897 86.6124 321.784
lowerback 12.3775 0.583171 -3.66626
upperback 0.807089 0.353983 0.764335
thorax -6.12597 0.301372 2.81469
lowerneck -9.0791 -10.6874 -12.8529
upperneck 32.9411 -16.412 13.9178
head 15.4778 -6.67786 5.38596
rclavicle 8.59744e-015 4.37326e-015
rhumerus -33.4625 -18.7233 -73.6153
rradius 36.4287
rwrist 2.17804
rhand -21.0674 8.96466
rfingers 7.12502
rthumb 5.30922 -20.9488
lclavicle 8.59744e-015 4.37326e-015
lhumerus -33.8187 10.9056 80.5834
lradius 30.4428
lwrist -7.5883
lhand -19.9444 25.8273
lfingers 7.12502
lthumb 6.39347 55.7108
rfemur -13.213 -2.24813 21.1395
rtibia 37.8317
rfoot -19.1045 10.4283
rtoes 1.485
lfemur -10.5353 -6.26033 -21.8866
ltibia 33.1336
lfoot -16.6447 -8.74487
ltoes 6.46947
197
root 8.81416 17.6877 -0.675012 319.839 86.435 321.642
lowerback 12.4346 0.598278 -3.90594
upperback 0.807049 0.345157 0.867967
thorax -6.15964 0.305841 3.06194
lowerneck -9.08332 -10.7506 -12.9116
upperneck 32.7428 -16.4961 13.943
head 15.4082 -6.72939 5.3754
rclavicle -6.98231e-015 -7.55382e-015
rhumerus -33.6769 -19.3925 -73.56
rradius 36.3954
rwrist 1.91679
rhand -21.268 9.13411
rfingers 7.12502
rthumb 5.11562 -20.7841
lclavicle -6.98231e-015 -7.55382e-015
lhumerus -33.6125 9.86342 80.8578
lradius 30.2628
lwrist -6.70669
lhand -19.943 25.9611
lfingers 7.12502
lthumb 6.39485 55.8446
rfemur -13.5388 -2.68678 21.2571
rtibia 38.1345
rfoot -19.3481 11.2832
rtoes 1.45539
lfemur -10.7279 -5.99398 -21.5321
ltibia 33.2498
lfoot -16.6899 -8.69706
ltoes 6.78266
198
root 8.80214 17.6891 -0.632015 320.944 86.1842 322.792
lowerback 12.5682 0.62237 -4.06019
upperback 0.843274 0.35459 0.910603
thorax -6.19804 0.316123 3.19309
lowerneck -9.09239 -10.7454 -12.9136
upperneck 32.5777 -16.5136 14.0421
head 15.3463 -6.73443 5.4047
rclavicle -2.5842e-015 0
rhumerus -33.9724 -20.2032 -73.4385
rradius 36.2981
rwrist 2.68134
rhand -21.1167 9.23677
rfingers 7.12502
rthumb 5.26169 -20.6779
lclavicle -2.5842e-015 0
lhumerus -33.4747 9.37125 80.8976
lradius 30.1278
lwrist -6.33967
lhand -20.0372 26.1127
lfingers 7.12502
lthumb 6.30389 55.9989
rfemur -13.7143 -3.21392 21.3146
rtibia 38.4609
rfoot -19.7463 12.0709
rtoes 0.130131
lfemur -10.7076 -5.84342 -21.2674
ltibia 33.2919
lfoot -16.5703 -8.8139
ltoes 7.95366
199
root 8.78704 17.687 -0.598835 322.119 85.9465 324.015
lowerback 12.7194 0.682246 -4.03952
upperback 0.885283 0.430373 0.87182
thorax -6.2439 0.353098 3.12669
lowerneck -9.10918 -10.7611 -12.9368
upperneck 32.4317 -16.5829 14.2215
head 15.3201 -6.75245 5.46417
rclavicle -5.11871e-015 1.74931e-014
rhumerus -34.2893 -20.8096 -73.434
rradius 36.2366
rwrist 3.23365
rhand -21.2465 8.9778
rfingers 7.12502
rthumb 5.13633 -20.9399
lclavicle -5.11871e-015 1.74931e-014
lhumerus -33.3115 9.26811 80.7509
lradius 29.9864
lwrist -6.59575
lhand -20.084 25.916
lfingers 7.12502
lthumb 6.25868 55.8035
rfemur -13.9019 -3.97538 21.2762
rtibia 38.8178
rfoot -20.1792 13.0994
rtoes -2.71873
lfemur -10.6627 -5.83922 -21.0939
ltibia 33.2769
lfoot -16.5804 -8.53452
ltoes 6.94177
200
root 8.77149 17.688 -0.568991 325.649 85.7268 327.495
lowerback 12.7582 0.79065 -4.13141
upperback 0.892901 0.55581 0.811511
thorax -6.26842 0.416694 3.09215
lowerneck -9.10476 -10.834 -13.0425
upperneck 32.3197 -16.6996 14.3225
head 15.3147 -6.81003 5.49539
rclavicle -7.90169e-015 -2.78299e-015
rhumerus -34.5555 -21.0992 -73.5076
rradius 36.1875
rwrist 2.77792
rhand -21.639 8.71952
rfingers 7.12502
rthumb 4.75737 -21.2071
lclavicle -7.90169e-015 -2.78299e-015
lhumerus -33.1659 8.93722 80.721
lradius 29.9144
lwrist -6.63981
lhand -19.8058 25.7804
lfingers 7.12502
lthumb 6.52726 55.6598
rfemur -14.2292 -4.63745 21.0437
rtibia 39.2088
rfoot -20.7559 14.076
rtoes -8.11566
lfemur -10.7054 -5.74904 -21.1281
ltibia 33.2209
lfoot -16.7252 -7.73184
ltoes 3.87069
201
root 8.75679 17.6913 -0.538869 329.739 85.3683 331.6
lowerback 12.8235 0.868736 -4.20024
upperback 0.930705 0.6439 0.744126
thorax -6.27218 0.460624 3.04353
lowerneck -9.24331 -10.8772 -13.1697
upperneck 32.3719 -16.7548 14.3618
head 15.4049 -6.83967 5.51945
rclavicle 1.68967e-015 7.95139e-015
rhumerus -34.8508 -21.8356 -73.4983
rradius 36.1773
rwrist 2.95572
rhand -21.7088 8.78431
rfingers 7.12502
rthumb 4.68993 -21.1438
lclavicle 1.68967e-015 7.95139e-015
lhumerus -33.0502 8.71374 80.6476
lradius 29.9068
lwrist -6.48542
lhand -18.444 25.6048
lfingers 7.12502
lthumb 7.84179 55.4394
rfemur -14.4912 -5.04846 20.7867
rtibia 39.5928
rfoot -21.7576 14.9916
rtoes -14.0608
lfemur -10.6239 -5.75111 -21.1744
ltibia 33.1354
lfoot -16.943 -6.78126
ltoes 1.11541
202
root 8.74329 17.6955 -0.510806 332.279 84.9547 334.196
lowerback 12.9534 0.889264 -4.10804
upperback 0.947371 0.672674 0.635539
thorax -6.32691 0.471841 2.87032
lowerneck -9.23565 -10.8602 -13.2685
upperneck 32.3536 -16.7523 14.4756
head 15.4213 -6.84205 5.58633
rclavicle -1.47598e-014 -8.34896e-015
rhumerus -35.2468 -23.1068 -73.4268
rradius 36.1295
rwrist 4.09612
rhand -21.3684 8.91035
rfingers 7.12502
rthumb 5.01861 -21.0102
lclavicle -1.47598e-014 -8.34896e-015
lhumerus -32.9744 8.68731 80.3816
lradius 29.8482
lwrist -6.30412
lhand -16.2709 25.1804
lfingers 7.12502
lthumb 9.93882 54.9258
rfemur -14.7086 -5.35217 20.5788
rtibia 39.9461
rfoot -22.7181 16.0223
rtoes -18.0139
lfemur -10.4764 -5.89017 -21.1206
ltibia 33.0113
lfoot -17.0063 -6.03465
ltoes -0.234844
203
root 8.73231 17.6994 -0.483136 334.495 84.5062 336.428
lowerback 13.0413 1.00029 -4.0183
upperback 0.922493 0.819405 0.499432
thorax -6.41103 0.541109 2.64744
lowerneck -9.1391 -10.9027 -13.1762
upperneck 32.345 -16.8516 14.4927
head 15.4065 -6.87642 5.56133
rclavicle -3.72721e-015 4.37326e-015
rhumerus -35.667 -23.7765 -73.5302
rradius 36.0257
rwrist 4.69183
rhand -21.1378 8.82545
rfingers 7.12502
rthumb 5.24132 -21.0897
lclavicle -3.72721e-015 4.37326e-015
lhumerus -32.8176 8.6704 80.0671
lradius 29.5869
lwrist -6.43597
lhand -15.1341 24.6499
lfingers 7.12502
lthumb 11.0354 54.3398
rfemur -14.9475 -5.50739 20.3711
rtibia 40.2436
rfoot -23.245 17.0011
rtoes -21.2039
lfemur -10.3786 -5.93234 -21.0458
ltibia 32.9
lfoot -17.0218 -5.26746
ltoes -1.4566
